<svg width="80" height="80" viewBox="0 0 80 80" fill="none" xmlns="http://www.w3.org/2000/svg">
<rect width="80" height="80" rx="10" fill="#005BFF"/>
<path d="M12.26 34.24C11.14 34.24 10.0667 34.0933 9.04 33.8C8.01333 33.4933 7.18667 33.1 6.56 32.62L7.66 30.18C8.26 30.6067 8.96667 30.96 9.78 31.24C10.6067 31.5067 11.44 31.64 12.28 31.64C12.92 31.64 13.4333 31.58 13.82 31.46C14.22 31.3267 14.5133 31.1467 14.7 30.92C14.8867 30.6933 14.98 30.4333 14.98 30.14C14.98 29.7667 14.8333 29.4733 14.54 29.26C14.2467 29.0333 13.86 28.8533 13.38 28.72C12.9 28.5733 12.3667 28.44 11.78 28.32C11.2067 28.1867 10.6267 28.0267 10.04 27.84C9.46667 27.6533 8.94 27.4133 8.46 27.12C7.98 26.8267 7.58667 26.44 7.28 25.96C6.98667 25.48 6.84 24.8667 6.84 24.12C6.84 23.32 7.05333 22.5933 7.48 21.94C7.92 21.2733 8.57333 20.7467 9.44 20.36C10.32 19.96 11.42 19.76 12.74 19.76C13.62 19.76 14.4867 19.8667 15.34 20.08C16.1933 20.28 16.9467 20.5867 17.6 21L16.6 23.46C15.9467 23.0867 15.2933 22.8133 14.64 22.64C13.9867 22.4533 13.3467 22.36 12.72 22.36C12.0933 22.36 11.58 22.4333 11.18 22.58C10.78 22.7267 10.4933 22.92 10.32 23.16C10.1467 23.3867 10.06 23.6533 10.06 23.96C10.06 24.32 10.2067 24.6133 10.5 24.84C10.7933 25.0533 11.18 25.2267 11.66 25.36C12.14 25.4933 12.6667 25.6267 13.24 25.76C13.8267 25.8933 14.4067 26.0467 14.98 26.22C15.5667 26.3933 16.1 26.6267 16.58 26.92C17.06 27.2133 17.4467 27.6 17.74 28.08C18.0467 28.56 18.2 29.1667 18.2 29.9C18.2 30.6867 17.98 31.4067 17.54 32.06C17.1 32.7133 16.44 33.24 15.56 33.64C14.6933 34.04 13.5933 34.24 12.26 34.24ZM24.5939 34.16C23.3272 34.16 22.3406 33.84 21.6339 33.2C20.9272 32.5467 20.5739 31.58 20.5739 30.3V20.86H23.6939V30.26C23.6939 30.7133 23.8139 31.0667 24.0539 31.32C24.2939 31.56 24.6206 31.68 25.0339 31.68C25.5272 31.68 25.9472 31.5467 26.2939 31.28L27.1339 33.48C26.8139 33.7067 26.4272 33.88 25.9739 34C25.5339 34.1067 25.0739 34.16 24.5939 34.16ZM18.9139 25.88V23.48H26.3739V25.88H18.9139ZM33.6733 34.16C32.5266 34.16 31.5066 33.92 30.6133 33.44C29.7333 32.96 29.0333 32.3067 28.5133 31.48C28.0066 30.64 27.7533 29.6867 27.7533 28.62C27.7533 27.54 28.0066 26.5867 28.5133 25.76C29.0333 24.92 29.7333 24.2667 30.6133 23.8C31.5066 23.32 32.5266 23.08 33.6733 23.08C34.8066 23.08 35.8199 23.32 36.7133 23.8C37.6066 24.2667 38.3066 24.9133 38.8133 25.74C39.3199 26.5667 39.5733 27.5267 39.5733 28.62C39.5733 29.6867 39.3199 30.64 38.8133 31.48C38.3066 32.3067 37.6066 32.96 36.7133 33.44C35.8199 33.92 34.8066 34.16 33.6733 34.16ZM33.6733 31.6C34.1933 31.6 34.6599 31.48 35.0733 31.24C35.4866 31 35.8133 30.66 36.0533 30.22C36.2933 29.7667 36.4133 29.2333 36.4133 28.62C36.4133 27.9933 36.2933 27.46 36.0533 27.02C35.8133 26.58 35.4866 26.24 35.0733 26C34.6599 25.76 34.1933 25.64 33.6733 25.64C33.1533 25.64 32.6866 25.76 32.2733 26C31.8599 26.24 31.5266 26.58 31.2733 27.02C31.0333 27.46 30.9133 27.9933 30.9133 28.62C30.9133 29.2333 31.0333 29.7667 31.2733 30.22C31.5266 30.66 31.8599 31 32.2733 31.24C32.6866 31.48 33.1533 31.6 33.6733 31.6ZM41.6588 34V23.24H44.6388V26.28L44.2188 25.4C44.5388 24.64 45.0521 24.0667 45.7588 23.68C46.4654 23.28 47.3254 23.08 48.3388 23.08V25.96C48.2054 25.9467 48.0854 25.94 47.9788 25.94C47.8721 25.9267 47.7588 25.92 47.6388 25.92C46.7854 25.92 46.0921 26.1667 45.5588 26.66C45.0388 27.14 44.7788 27.8933 44.7788 28.92V34H41.6588ZM55.4558 34.16C54.2291 34.16 53.1491 33.92 52.2158 33.44C51.2958 32.96 50.5824 32.3067 50.0758 31.48C49.5691 30.64 49.3158 29.6867 49.3158 28.62C49.3158 27.54 49.5624 26.5867 50.0558 25.76C50.5624 24.92 51.2491 24.2667 52.1158 23.8C52.9824 23.32 53.9624 23.08 55.0558 23.08C56.1091 23.08 57.0558 23.3067 57.8958 23.76C58.7491 24.2 59.4224 24.84 59.9158 25.68C60.4091 26.5067 60.6558 27.5 60.6558 28.66C60.6558 28.78 60.6491 28.92 60.6358 29.08C60.6224 29.2267 60.6091 29.3667 60.5958 29.5H51.8558V27.68H58.9558L57.7558 28.22C57.7558 27.66 57.6424 27.1733 57.4158 26.76C57.1891 26.3467 56.8758 26.0267 56.4758 25.8C56.0758 25.56 55.6091 25.44 55.0758 25.44C54.5424 25.44 54.0691 25.56 53.6558 25.8C53.2558 26.0267 52.9424 26.3533 52.7158 26.78C52.4891 27.1933 52.3758 27.6867 52.3758 28.26V28.74C52.3758 29.3267 52.5024 29.8467 52.7558 30.3C53.0224 30.74 53.3891 31.08 53.8558 31.32C54.3358 31.5467 54.8958 31.66 55.5358 31.66C56.1091 31.66 56.6091 31.5733 57.0358 31.4C57.4758 31.2267 57.8758 30.9667 58.2358 30.62L59.8958 32.42C59.4024 32.98 58.7824 33.4133 58.0358 33.72C57.2891 34.0133 56.4291 34.16 55.4558 34.16Z" fill="white"/>
<path d="M30.66 60V46H33.34L39.3 55.88H37.88L43.74 46H46.4L46.44 60H43.4L43.38 50.66H43.94L39.26 58.52H37.8L33.02 50.66H33.7V60H30.66ZM56.1416 60V57.9L55.9416 57.44V53.68C55.9416 53.0133 55.7349 52.4933 55.3216 52.12C54.9216 51.7467 54.3016 51.56 53.4616 51.56C52.8882 51.56 52.3216 51.6533 51.7616 51.84C51.2149 52.0133 50.7482 52.2533 50.3616 52.56L49.2416 50.38C49.8282 49.9667 50.5349 49.6467 51.3616 49.42C52.1882 49.1933 53.0282 49.08 53.8816 49.08C55.5216 49.08 56.7949 49.4667 57.7016 50.24C58.6082 51.0133 59.0616 52.22 59.0616 53.86V60H56.1416ZM52.8616 60.16C52.0216 60.16 51.3016 60.02 50.7016 59.74C50.1016 59.4467 49.6416 59.0533 49.3216 58.56C49.0016 58.0667 48.8416 57.5133 48.8416 56.9C48.8416 56.26 48.9949 55.7 49.3016 55.22C49.6216 54.74 50.1216 54.3667 50.8016 54.1C51.4816 53.82 52.3682 53.68 53.4616 53.68H56.3216V55.5H53.8016C53.0682 55.5 52.5616 55.62 52.2816 55.86C52.0149 56.1 51.8816 56.4 51.8816 56.76C51.8816 57.16 52.0349 57.48 52.3416 57.72C52.6616 57.9467 53.0949 58.06 53.6416 58.06C54.1616 58.06 54.6282 57.94 55.0416 57.7C55.4549 57.4467 55.7549 57.08 55.9416 56.6L56.4216 58.04C56.1949 58.7333 55.7816 59.26 55.1816 59.62C54.5816 59.98 53.8082 60.16 52.8616 60.16ZM60.5253 60L65.3453 53.68L65.2853 55.4L60.6653 49.24H64.1653L67.0853 53.26L65.7653 53.3L68.7853 49.24H72.1053L67.4653 55.34V53.66L72.2653 60H68.7253L65.6653 55.72L66.9653 55.9L63.9253 60H60.5253Z" fill="white"/>
</svg>
